<svg width="32" height="32" viewBox="0 0 32 32" fill="none" xmlns="http://www.w3.org/2000/svg">
<path fill-rule="evenodd" clip-rule="evenodd" d="M16.0001 18.9459L27.7855 30.7313C28.1784 31.1108 28.7047 31.3208 29.2509 31.316C29.7972 31.3113 30.3197 31.0922 30.706 30.7059C31.0922 30.3196 31.3113 29.7971 31.3161 29.2509C31.3208 28.7046 31.1108 28.1784 30.7313 27.7854L18.9459 16L30.7313 4.21461C31.1108 3.82169 31.3208 3.29543 31.3161 2.74919C31.3113 2.20295 31.0922 1.68042 30.706 1.29415C30.3197 0.907888 29.7972 0.688785 29.2509 0.684039C28.7047 0.679292 28.1784 0.88928 27.7855 1.26878L16.0001 13.0542L4.21466 1.26878C3.81997 0.898661 3.29677 0.696621 2.75577 0.705406C2.21476 0.714191 1.6984 0.933112 1.31593 1.31585C0.933469 1.69858 0.714912 2.2151 0.70651 2.75611C0.698108 3.29712 0.900518 3.82018 1.27091 4.21461L13.0542 16L1.26883 27.7854C1.06985 27.9776 0.911137 28.2075 0.801952 28.4617C0.692766 28.7159 0.635295 28.9892 0.632891 29.2659C0.630487 29.5425 0.683199 29.8168 0.787951 30.0728C0.892702 30.3289 1.0474 30.5615 1.24301 30.7571C1.43862 30.9527 1.67122 31.1074 1.92726 31.2122C2.18329 31.3169 2.45762 31.3696 2.73425 31.3672C3.01087 31.3648 3.28425 31.3073 3.53842 31.1982C3.7926 31.089 4.02248 30.9303 4.21466 30.7313L16.0001 18.9459Z" fill="white"/>
</svg>