<svg width="20" height="20" viewBox="0 0 20 20" fill="none" xmlns="http://www.w3.org/2000/svg">
<path fill-rule="evenodd" clip-rule="evenodd" d="M9.99966 11.7674L17.0709 18.8387C17.3067 19.0664 17.6224 19.1924 17.9502 19.1895C18.2779 19.1867 18.5914 19.0552 18.8232 18.8235C19.0549 18.5917 19.1864 18.2782 19.1892 17.9504C19.1921 17.6227 19.0661 17.3069 18.8384 17.0712L11.7672 9.99994L18.8384 2.92869C19.0661 2.69294 19.1921 2.37719 19.1892 2.04944C19.1864 1.7217 19.0549 1.40818 18.8232 1.17642C18.5914 0.944659 18.2779 0.813198 17.9502 0.81035C17.6224 0.807502 17.3067 0.933495 17.0709 1.16119L9.99966 8.23244L2.92841 1.16119C2.69159 0.939123 2.37767 0.817899 2.05307 0.82317C1.72847 0.828441 1.41865 0.959794 1.18917 1.18943C0.959691 1.41908 0.828557 1.72899 0.823515 2.05359C0.818474 2.3782 0.93992 2.69204 1.16216 2.92869L8.23216 9.99994L1.16091 17.0712C1.04152 17.1865 0.946292 17.3244 0.88078 17.4769C0.815269 17.6294 0.780786 17.7935 0.779344 17.9594C0.777902 18.1254 0.809529 18.29 0.87238 18.4436C0.935231 18.5973 1.02805 18.7368 1.14541 18.8542C1.26278 18.9715 1.40234 19.0644 1.55596 19.1272C1.70958 19.1901 1.87418 19.2217 2.04016 19.2203C2.20613 19.2188 2.37016 19.1843 2.52266 19.1188C2.67517 19.0533 2.8131 18.9581 2.92841 18.8387L9.99966 11.7674Z" fill="#333333"/>
</svg>
