<svg width="50" height="50" fill="none" xmlns="http://www.w3.org/2000/svg"><path d="M28.0916 12.85H28.2416C33.6392 12.85 37.558 17.1956 37.8945 21.9694C41.1409 23.1105 43.4778 26.1817 43.4778 29.8103C43.4778 34.4062 39.7337 38.15 35.1381 38.15H14.4484C9.61879 38.15 6.10879 34.8297 6.10879 30.6725C6.10879 27.4523 8.19089 24.3253 11.3717 23.4036C11.6063 20.9154 12.844 18.9871 14.5732 17.9496L28.0916 12.85ZM28.0916 12.85V12.8514M28.0916 12.85V12.8514M28.0916 12.8514C24.455 12.9045 21.6498 14.8844 20.0814 17.3855C18.2471 16.7694 16.2267 16.9573 14.5732 17.9496L28.0916 12.8514ZM35.9308 22.6963C35.9249 23.0798 36.1349 23.4254 36.4603 23.6018L36.4345 23.6277L36.6904 23.6925C39.4251 24.3848 41.4534 26.8511 41.4534 29.8105C41.4534 33.3086 38.636 36.1261 35.1379 36.1261H14.4483C12.4764 36.1261 10.8978 35.515 9.81396 34.5328C8.73063 33.5511 8.13276 32.191 8.13276 30.6725C8.13276 28.1359 9.95989 25.6238 12.4662 25.2034L12.4672 25.2032C12.9513 25.1186 13.3051 24.6986 13.3054 24.2071L13.3055 24.1449L13.3054 24.1448C13.3233 21.907 14.3111 20.4581 15.6166 19.6747C16.9385 18.8818 18.6174 18.8015 20.0253 19.5053L20.0254 19.5053C20.2664 19.6256 20.5453 19.6451 20.8006 19.5589L20.7599 19.4383L20.8006 19.5589C21.0558 19.4728 21.2661 19.2886 21.3854 19.0469L21.2509 18.9805L21.385 19.0476C22.5131 16.7911 24.9273 14.8968 28.1827 14.8742H28.2413C32.7594 14.8742 35.9686 18.7256 35.9308 22.6963ZM35.9308 22.6963C35.9308 22.6962 35.9308 22.6961 35.9308 22.6959L36.0808 22.6983L35.9308 22.6969C35.9308 22.6967 35.9308 22.6965 35.9308 22.6963Z" fill="#C753DF" stroke="#C753DF" stroke-width="0.3"/></svg>