<svg width="50" height="50" fill="none" xmlns="http://www.w3.org/2000/svg"><path d="M39.2468 21.7999L39.247 21.7998C39.5129 21.6686 39.7233 21.4621 39.8533 21.2151C39.8962 21.1335 39.9436 20.9962 39.9708 20.673C39.9992 20.337 40 19.8981 40 19.23V12.72C40 12.0519 39.9992 11.6129 39.9708 11.277C39.9436 10.9537 39.8962 10.8164 39.8534 10.735C39.7234 10.488 39.513 10.2814 39.247 10.1502L39.2468 10.1501C39.1518 10.1032 38.9982 10.0555 38.6574 10.0286C38.3058 10.0007 37.8481 10 37.16 10H30.44C29.752 10 29.2942 10.0007 28.9426 10.0286C28.6018 10.0555 28.4481 10.1032 28.3531 10.1501L28.353 10.1502C28.087 10.2814 27.8766 10.4879 27.7466 10.7348L39.2468 21.7999ZM39.2468 21.7999C39.1518 21.8468 38.9982 21.8944 38.6574 21.9214C38.3058 21.9493 37.8481 21.95 37.16 21.95H30.44C29.752 21.95 29.2942 21.9493 28.9426 21.9214C28.6018 21.8944 28.4481 21.8468 28.3531 21.7999L28.353 21.7998M39.2468 21.7999L28.353 21.7998M28.353 21.7998C28.0869 21.6685 27.8764 21.4619 27.7465 21.2149M28.353 21.7998L27.7465 21.2149M39.8534 27.785L39.8534 27.785C39.7234 27.538 39.5131 27.3314 39.2468 27.2C39.1517 27.1531 38.998 27.1055 38.6574 27.0786C38.3058 27.0507 37.8481 27.05 37.16 27.05H30.44C29.752 27.05 29.2942 27.0507 28.9426 27.0786C28.602 27.1055 28.4482 27.1531 28.3532 27.2C28.0869 27.3314 27.8765 27.538 27.7466 27.7848L39.8534 27.785ZM39.8534 27.785C39.8962 27.8664 39.9436 28.0037 39.9708 28.3269C39.9992 28.6629 40 29.1019 40 29.77V36.28C40 36.9481 39.9992 37.3871 39.9708 37.723C39.9436 38.0462 39.8962 38.1835 39.8534 38.2649L39.8534 38.2649C39.7234 38.5119 39.5131 38.7185 39.2468 38.8499L39.2468 38.8499M39.8534 27.785L39.2468 38.8499M39.2468 38.8499C39.1518 38.8968 38.9981 38.9445 38.6574 38.9714C38.3058 38.9993 37.8481 39 37.16 39H30.44C29.752 39 29.2942 38.9993 28.9426 38.9714C28.6019 38.9445 28.4482 38.8968 28.3532 38.8499C28.0869 38.7184 27.8764 38.5118 27.7465 38.2649C27.7037 38.1834 27.6564 38.0461 27.6292 37.723C27.6008 37.3871 27.6 36.9481 27.6 36.28V29.77C27.6 29.1019 27.6008 28.6628 27.6292 28.3269M39.2468 38.8499L27.6292 28.3269M27.7465 21.2149C27.7037 21.1333 27.6564 20.9959 27.6292 20.673M27.7465 21.2149L27.6292 20.673M27.6292 20.673C27.6008 20.3371 27.6 19.8981 27.6 19.23M27.6292 20.673L27.6 19.23M27.6 19.23V12.72M27.6 19.23V12.72M27.6 12.72C27.6 12.0519 27.6008 11.6129 27.6292 11.2769M27.6 12.72L27.6292 11.2769M27.6292 11.2769C27.6564 10.9539 27.7037 10.8166 27.7465 10.7351L27.6292 11.2769ZM27.6292 28.3269C27.6564 28.0038 27.7037 27.8665 27.7465 27.785L27.6292 28.3269ZM22.2533 10.7349L22.2534 10.735C22.2962 10.8164 22.3436 10.9537 22.3708 11.277C22.3992 11.6129 22.4 12.0519 22.4 12.72V19.23C22.4 19.8981 22.3992 20.337 22.3708 20.673C22.3436 20.9962 22.2962 21.1335 22.2533 21.2151L22.2533 21.2151C22.1235 21.4619 21.9131 21.6685 21.647 21.7998L21.6469 21.7999C21.5519 21.8468 21.3982 21.8944 21.0574 21.9214C20.7058 21.9493 20.248 21.95 19.56 21.95H12.84C12.1519 21.95 11.6942 21.9493 11.3426 21.9214C11.0017 21.8944 10.8481 21.8468 10.7531 21.7999L10.753 21.7998C10.4869 21.6685 10.2765 21.4619 10.1467 21.2151L10.1467 21.2151C10.1038 21.1335 10.0564 20.9962 10.0292 20.673C10.0008 20.337 10 19.8981 10 19.23V12.72C10 12.0519 10.0008 11.6129 10.0292 11.277C10.0564 10.9537 10.1038 10.8164 10.1466 10.735L10.1467 10.7349C10.2765 10.4881 10.4869 10.2815 10.753 10.1502L10.7531 10.1501C10.8481 10.1032 11.0017 10.0555 11.3426 10.0286C11.6942 10.0007 12.1519 10 12.84 10H19.56C20.248 10 20.7058 10.0007 21.0574 10.0286C21.3982 10.0555 21.5519 10.1032 21.6469 10.1501L21.647 10.1502C21.9131 10.2815 22.1235 10.4881 22.2533 10.7349ZM22.2533 27.7848L22.2534 27.785C22.2962 27.8664 22.3436 28.0037 22.3708 28.3269C22.3992 28.6629 22.4 29.1019 22.4 29.77V36.28C22.4 36.9481 22.3992 37.3871 22.3708 37.723C22.3436 38.0462 22.2962 38.1835 22.2534 38.2649L22.2533 38.2651C22.1235 38.5119 21.9131 38.7184 21.6468 38.8499C21.5518 38.8968 21.3981 38.9445 21.0574 38.9714C20.7058 38.9993 20.248 39 19.56 39H12.84C12.1519 39 11.6942 38.9993 11.3426 38.9714C11.0018 38.9445 10.8482 38.8968 10.7531 38.8499C10.4868 38.7184 10.2765 38.5119 10.1467 38.2651L10.1466 38.2649C10.1038 38.1835 10.0564 38.0462 10.0292 37.723C10.0008 37.3871 10 36.9481 10 36.28V29.77C10 29.1019 10.0008 28.6629 10.0292 28.3269C10.0564 28.0037 10.1038 27.8664 10.1466 27.785L10.1467 27.7848C10.2765 27.538 10.4868 27.3315 10.7531 27.2C10.8482 27.1531 11.002 27.1055 11.3425 27.0786C11.6942 27.0507 12.152 27.05 12.84 27.05H19.56C20.248 27.05 20.7058 27.0507 21.0575 27.0786C21.398 27.1055 21.5518 27.1531 21.6468 27.2C21.9131 27.3315 22.1235 27.538 22.2533 27.7848Z" stroke="#C753DF" stroke-width="2"/></svg>