<svg width="50" height="50" fill="none" xmlns="http://www.w3.org/2000/svg"><path d="M22.7211 8C21.4709 8 20.4406 9.04732 20.4406 10.3183V11.9361C18.7933 12.5312 17.2976 13.4327 16.0108 14.5802L14.6211 13.7833C13.5317 13.164 12.1314 13.5558 11.5212 14.6646L9.2885 18.7093C8.67452 19.8253 9.0743 21.251 10.1673 21.8728L11.557 22.6697C11.43 23.4302 11.3195 24.2027 11.3195 24.9998C11.3195 25.7965 11.4303 26.5581 11.557 27.3181L10.1673 28.1151C9.07431 28.7366 8.67451 30.1625 9.2885 31.2786L11.5212 35.3233C12.1312 36.432 13.5317 36.8242 14.6211 36.2046L16.0108 35.4198C17.2965 36.5654 18.7957 37.4575 20.4406 38.0517V39.6817C20.4406 40.9527 21.4709 42 22.7211 42H27.2817C28.5319 42 29.5621 40.9527 29.5621 39.6817V38.0517C31.2034 37.4575 32.697 36.5627 33.9804 35.4198L35.3701 36.2046C36.4594 36.8239 37.8716 36.432 38.4817 35.3233C39.2372 33.9062 40.0386 32.4779 40.7143 31.2786C41.3283 30.1625 40.9166 28.7369 39.8236 28.1151L38.4339 27.3181C38.5609 26.5581 38.6833 25.7965 38.6833 24.9998C38.6833 24.2023 38.5611 23.4302 38.4339 22.6697L39.8236 21.8728C40.9166 21.2513 41.3283 19.8253 40.7143 18.7093C39.9175 17.314 39.1248 15.8544 38.4817 14.6646C37.8717 13.5558 36.4592 13.1637 35.3701 13.7833L33.9804 14.5681C32.6973 13.4252 31.2034 12.5301 29.5621 11.9361V10.3183C29.5621 9.04732 28.5319 8 27.2817 8H22.7211ZM22.7211 9.54531H27.2817C27.7159 9.54531 28.0417 9.87654 28.0417 10.318V12.443C28.0417 12.7694 28.2694 13.0826 28.5762 13.1796C30.4025 13.7493 32.0363 14.7441 33.3862 16.053C33.6219 16.2802 34.0076 16.3266 34.2889 16.1617L36.1179 15.1232C36.4986 14.9068 36.9389 15.0394 37.1513 15.4251L39.3839 19.4698C39.5923 19.8482 39.4521 20.3179 39.0751 20.5322L37.2581 21.5706C36.9795 21.7315 36.8231 22.0851 36.8899 22.4036C37.0656 23.2402 37.1629 24.1088 37.1629 24.9995C37.1629 25.8902 37.0654 26.7467 36.8899 27.5832C36.8231 27.9018 36.9795 28.2554 37.2581 28.4163L39.0751 29.4547C39.4521 29.6692 39.5921 30.1387 39.3839 30.517L37.1513 34.5618C36.9392 34.9474 36.4988 35.08 36.1179 34.8636L34.2889 33.8252C34.0076 33.6603 33.6219 33.7066 33.3862 33.9338C32.0363 35.2431 30.4027 36.2376 28.5762 36.8072C28.2657 36.9053 28.0372 37.2252 28.0417 37.556V39.681C28.0417 40.1225 27.7159 40.4537 27.2817 40.4537H22.7211C22.2869 40.4537 21.9611 40.1225 21.9611 39.681V37.556C21.9648 37.2226 21.7296 36.9011 21.4147 36.8072C19.5884 36.2375 17.9546 35.2427 16.6046 33.9338C16.3689 33.7066 15.9832 33.6603 15.7019 33.8252L13.873 34.8636C13.4923 35.0803 13.0639 34.9474 12.8515 34.5618C12.0546 33.1665 11.2619 31.7069 10.6188 30.517C10.4105 30.1386 10.5388 29.6689 10.9158 29.4547L12.7328 28.4163C13.0114 28.2554 13.1678 27.9018 13.101 27.5832C12.9252 26.7467 12.8396 25.8902 12.8396 24.9995C12.8396 24.1088 12.9252 23.2402 13.101 22.4036C13.1678 22.0851 13.0114 21.7312 12.7328 21.5706L10.9158 20.5322C10.5388 20.3176 10.4105 19.8482 10.6188 19.4698C11.3744 18.0528 12.1758 16.6244 12.8515 15.4251C13.0636 15.0394 13.492 14.9068 13.873 15.1232L15.7019 16.1617C15.9832 16.3266 16.3689 16.2802 16.6046 16.053C17.9546 14.7438 19.5881 13.7493 21.4147 13.1796C21.7256 13.0869 21.9589 12.7727 21.9611 12.443V10.318C21.9611 9.87652 22.2869 9.54531 22.7211 9.54531V9.54531ZM25.0016 17.2726C20.8126 17.2726 17.4005 20.7413 17.4005 24.9998C17.4005 29.2583 20.8126 32.7271 25.0016 32.7271C29.1905 32.7271 32.6026 29.2583 32.6026 24.9998C32.6026 20.7413 29.1905 17.2726 25.0016 17.2726ZM25.0016 18.8179C28.3689 18.8179 31.0826 21.5762 31.0826 24.9998C31.0826 28.4231 28.3692 31.1818 25.0016 31.1818C21.6342 31.1818 18.9206 28.4231 18.9206 24.9998C18.9206 21.5765 21.6341 18.8179 25.0016 18.8179V18.8179Z" fill="#C753DF" stroke="#C753DF" stroke-width="0.5"/></svg>