<svg width="50" height="50" fill="none" xmlns="http://www.w3.org/2000/svg"><path d="M45.5625 15C43.941 15 42.625 16.3785 42.625 18.0769C42.625 18.3506 42.6706 18.6109 42.7338 18.8647L37.9142 23.9131L33.0945 28.9615C32.8548 28.8938 32.605 28.8461 32.3437 28.8461C32.028 28.8461 31.7313 28.9107 31.4477 29.0075L20.5276 18.7156C20.5702 18.5095 20.5938 18.2973 20.5938 18.0772C20.5938 16.3787 19.2778 15.0002 17.6563 15.0002C16.0508 15.0002 14.7512 16.3495 14.7246 18.0233L5.93712 23.1373C5.49649 22.8602 4.98829 22.6926 4.43755 22.6926C2.81602 22.6926 1.5 24.0711 1.5 25.7696C1.5 27.468 2.81602 28.8465 4.43755 28.8465C6.04304 28.8465 7.34261 27.4972 7.36922 25.8235L16.155 20.7094C16.5973 20.9865 17.1054 21.1541 17.6563 21.1541C17.972 21.1541 18.2687 21.0896 18.5535 20.9927L29.472 31.2847C29.4297 31.4907 29.4061 31.7029 29.4061 31.9231C29.4061 33.6215 30.7221 35 32.3436 35C33.9652 35 35.2812 33.6215 35.2812 31.9231C35.2812 31.6494 35.2356 31.3891 35.1723 31.1353L44.8117 21.0385C45.0513 21.1062 45.3012 21.1539 45.5625 21.1539C47.184 21.1539 48.5 19.7754 48.5 18.0769C48.5 16.3785 47.1841 15 45.5625 15Z" fill="#C753DF"/></svg>