<svg width="50" height="50" fill="none" xmlns="http://www.w3.org/2000/svg"><path d="M41.9943 24.0892C41.8086 20.6473 40.5911 17.3431 38.5027 14.6125C38.1471 14.1434 37.7668 13.693 37.3636 13.2648C34.5192 10.2399 30.6749 8.36715 26.5547 8H23.4392C19.3191 8.36713 15.4751 10.2399 12.6308 13.2648C12.2276 13.6931 11.8472 14.1434 11.4916 14.6125C9.40337 17.3431 8.18625 20.6473 8 24.0892V24.9842V25.8793C8.18573 29.2764 9.37625 32.5406 11.4183 35.2507C11.7645 35.7085 12.1346 36.1476 12.5261 36.5669C15.3756 39.6817 19.2727 41.6184 23.4605 42H26.5759C30.7563 41.6131 34.6446 39.6773 37.4889 36.5669C37.8804 36.1476 38.2505 35.7086 38.5968 35.2507C40.624 32.5356 41.7999 29.2722 41.9731 25.8793V24.9842C41.9731 24.6787 42.0153 24.3948 41.9943 24.0892ZM21.3184 10.0842C19.8806 11.8079 18.7265 13.7521 17.9001 15.8439C16.6046 15.4195 15.3544 14.8652 14.1682 14.1907C16.1323 12.1868 18.606 10.7662 21.3184 10.0842ZM17.9523 24.0892C18.0256 22.0223 18.3774 19.9747 18.9976 18.0032C20.678 18.4286 22.3987 18.6721 24.13 18.7295V24.0892L17.9523 24.0892ZM24.1197 25.8689V31.0073C22.3562 31.0613 20.6038 31.3086 18.8931 31.7443C18.3112 29.8377 17.9808 27.862 17.9103 25.8689H24.1197ZM12.9869 15.5075C14.3519 16.3174 15.7995 16.9774 17.3041 17.4766C16.6339 19.6084 16.2573 21.8224 16.1855 24.0577H9.78843C9.9639 20.9458 11.0798 17.9623 12.9869 15.5075ZM12.8721 34.2286C11.0111 31.8016 9.91809 28.8664 9.73614 25.8049H16.1337C16.1999 27.9691 16.5513 30.115 17.1785 32.1861C15.6727 32.722 14.2288 33.421 12.8721 34.2709L12.8721 34.2286ZM14.0322 35.5975C15.233 34.9013 16.5009 34.3297 17.8165 33.8916C18.6485 36.0572 19.8283 38.0709 21.3076 39.8516C18.5393 39.1606 16.0188 37.7015 14.0324 35.6397L14.0322 35.5975ZM24.1197 40.2729C22.1 38.3644 20.5287 36.0262 19.5203 33.4286C21.0276 33.0563 22.569 32.8415 24.1197 32.786V40.2729ZM24.1197 9.65262V16.9181C22.5975 16.8636 21.0846 16.6558 19.6038 16.2966C20.6118 13.7775 22.1527 11.5104 24.1197 9.65262ZM35.8377 14.1488C34.6514 14.8239 33.4016 15.3772 32.1063 15.8016C31.2798 13.7102 30.1257 11.7655 28.688 10.0418C31.4049 10.7356 33.8791 12.1712 35.8378 14.1907L35.8377 14.1488ZM25.886 24.0571L25.8865 18.7288C27.6178 18.6715 29.3385 18.428 31.0189 18.0026C31.6391 19.9741 31.9909 22.0216 32.0642 24.0886L25.886 24.0571ZM32.0535 25.8368C31.983 27.8303 31.653 29.8051 31.0711 31.7122C29.3604 31.2765 27.608 31.0292 25.8445 30.9751V25.8785L32.0535 25.8368ZM25.886 9.62109C27.8526 11.4789 29.3944 13.746 30.4019 16.2651C28.9212 16.6238 27.4082 16.832 25.8865 16.8861L25.886 9.62109ZM25.886 40.2414L25.8865 32.786C27.4372 32.8415 28.9786 33.0563 30.4859 33.4286C29.4803 36.0253 27.9127 38.3634 25.8968 40.2729L25.886 40.2414ZM28.6874 39.8517C30.1672 38.071 31.3469 36.0573 32.179 33.8916C33.4946 34.3297 34.7624 34.9014 35.9632 35.5976C33.9888 37.6847 31.471 39.1697 28.6982 39.8832L28.6874 39.8517ZM37.1335 34.2394C35.7545 33.4074 34.2896 32.7295 32.7646 32.2176C33.3923 30.1464 33.7437 28.0006 33.8099 25.8364H40.2075C40.0483 28.8937 38.981 31.8322 37.1442 34.2709L37.1335 34.2394ZM33.8198 24.0572C33.7479 21.822 33.3722 19.6079 32.7016 17.4761C34.2104 16.9773 35.6612 16.3173 37.0295 15.507C38.9368 17.9616 40.0526 20.9452 40.228 24.0572H33.8198Z" fill="#C753DF"/></svg>