<svg width="50" height="50" fill="none" xmlns="http://www.w3.org/2000/svg"><g opacity="0.7"><path d="M12.5556 36.375C14.5192 36.375 16.1111 34.808 16.1111 32.875C16.1111 30.942 14.5192 29.375 12.5556 29.375C10.5919 29.375 9 30.942 9 32.875C9 34.808 10.5919 36.375 12.5556 36.375Z" fill="#B10BD4"/><path d="M37.4462 31.1253C39.4099 31.1253 41.0017 29.5583 41.0017 27.6253C41.0017 25.6923 39.4099 24.1252 37.4462 24.1252C35.4825 24.1252 33.8906 25.6923 33.8906 27.6253C33.8906 29.5583 35.4825 31.1253 37.4462 31.1253Z" fill="#B10BD4"/><path d="M12.5547 7.5V42.5V7.5Z" fill="#B10BD4"/><path d="M12.5547 7.5V42.5" stroke="#B10BD4" stroke-width="1.5" stroke-linecap="round"/><path d="M25 7.5V42.5V7.5Z" fill="#B10BD4"/><path d="M25 7.5V42.5" stroke="#B10BD4" stroke-width="1.5" stroke-linecap="round"/><path d="M37 8V43V8Z" fill="#B10BD4"/><path d="M37 8V43" stroke="#B10BD4" stroke-width="1.5" stroke-linecap="round"/><path d="M25.0009 21.0076C26.6884 21.0076 28.0564 19.6609 28.0564 17.9998C28.0564 16.3386 26.6884 14.9919 25.0009 14.9919C23.3133 14.9919 21.9453 16.3386 21.9453 17.9998C21.9453 19.6609 23.3133 21.0076 25.0009 21.0076Z" fill="#B10BD4" stroke="#B10BD4"/></g></svg>