<svg width="50" height="50" fill="none" xmlns="http://www.w3.org/2000/svg"><path d="M25.3309 10.4297V8.78335C25.3309 8.49697 25.184 8.24655 24.9265 8.10321C24.669 7.96014 24.3752 7.96014 24.1177 8.13891L19.4854 10.8951C19.2649 11.0381 19.1177 11.2888 19.1177 11.5392C19.1177 11.7899 19.2646 12.0403 19.4854 12.1834L24.081 14.9753C24.1913 15.047 24.3385 15.0827 24.4854 15.0827C24.6324 15.0827 24.7429 15.047 24.8898 14.9753C25.1473 14.8322 25.2943 14.5816 25.2943 14.2952V12.8635C31.9854 13.1142 37.3898 18.4475 37.3898 24.9976C37.3898 28.2189 36.1029 31.2614 33.7501 33.5164C33.2354 34.0175 33.2354 34.805 33.7501 35.3061C34.0075 35.5568 34.3383 35.6642 34.6692 35.6642C35 35.6642 35.3308 35.5568 35.5883 35.3061C38.4192 32.5499 40 28.8991 40 24.9976C40.0002 17.0514 33.4191 10.6085 25.3309 10.4296L25.3309 10.4297Z" fill="#C753DF"/><path d="M25.9192 34.9843C25.6617 34.8412 25.3678 34.8412 25.1104 34.9486C24.8529 35.0916 24.706 35.3423 24.706 35.6287V37.0603C17.978 36.8815 12.6104 31.5482 12.6104 24.9979C12.6104 21.7766 13.8973 18.7697 16.2502 16.479C16.7649 15.9779 16.7649 15.1904 16.2502 14.6893C15.7355 14.1882 14.9267 14.1882 14.4119 14.6893C11.581 17.4455 10 21.0964 10 24.9979C10 32.9441 16.5441 39.4227 24.6691 39.5659V41.2125C24.6691 41.4989 24.816 41.7493 25.0735 41.8926C25.1838 41.9643 25.331 42 25.4779 42C25.6249 42 25.7721 41.9643 25.8823 41.8926L30.5146 39.1005C30.7352 38.9574 30.8824 38.7067 30.8824 38.4563C30.8824 38.2057 30.7354 37.9552 30.5146 37.8122L25.9192 34.9843Z" fill="#C753DF"/></svg>