<svg width="50" height="50" fill="none" xmlns="http://www.w3.org/2000/svg"><path d="M12.7347 16.4729L13.1303 17.3882L12.7347 16.4729C12.3433 16.6421 12.0843 16.9401 11.9021 17.186C11.7243 17.4259 11.5336 17.7396 11.3251 18.0825L11.3035 18.1179L12.1579 18.6376L11.3035 18.1179L9.49964 21.0839C9.43067 21.1973 9.39602 21.2538 9.3691 21.2938C9.36839 21.2948 9.36771 21.2959 9.36705 21.2968C9.36593 21.2971 9.36476 21.2975 9.36354 21.2978C9.31716 21.3109 9.25267 21.3262 9.12343 21.3564L5.83166 22.125L5.79133 22.1344C5.40323 22.225 5.04783 22.308 4.76602 22.4016C4.47658 22.4977 4.11471 22.6501 3.83254 22.9673C3.4644 23.3811 3.28433 23.929 3.33523 24.4805C3.37424 24.9032 3.57514 25.2406 3.75111 25.4897C3.92245 25.7322 4.15934 26.0098 4.41805 26.313L4.44492 26.3445L6.71033 28.9996L7.47106 28.3506L6.71033 28.9996C6.7961 29.1002 6.83874 29.1505 6.86817 29.1884C6.86894 29.1894 6.86968 29.1904 6.87039 29.1913C6.87035 29.1924 6.87031 29.1936 6.87026 29.1949C6.86837 29.2428 6.86298 29.3086 6.8517 29.4403L6.56175 32.8258L6.55821 32.8672C6.52402 33.266 6.49273 33.631 6.49449 33.9289C6.49631 34.2346 6.52924 34.6273 6.74454 34.9945C7.02522 35.4734 7.49227 35.814 8.03396 35.935C8.44947 36.0279 8.83337 35.9393 9.12502 35.8476C9.40926 35.7583 9.74725 35.617 10.1166 35.4626L10.1549 35.4466L9.76924 34.5239L10.1549 35.4466L13.3467 34.1126C13.4696 34.0613 13.531 34.0359 13.5765 34.0193C13.5777 34.0189 13.5788 34.0184 13.5799 34.018C13.581 34.0185 13.5822 34.0189 13.5834 34.0193C13.6287 34.0361 13.69 34.0619 13.8126 34.114L16.9126 35.4304L17.3035 34.51L16.9126 35.4304L16.9508 35.4467C17.3193 35.6032 17.6564 35.7464 17.9402 35.8373C18.2313 35.9307 18.6147 36.0214 19.0307 35.931C19.5731 35.8131 20.0421 35.4751 20.3255 34.9979C20.5429 34.6318 20.5781 34.2394 20.5816 33.9337C20.5851 33.6357 20.5559 33.2706 20.5239 32.8715L20.5206 32.8302L20.2427 29.3521C20.2322 29.2204 20.2271 29.1546 20.2255 29.1067C20.2255 29.1054 20.2254 29.1042 20.2254 29.1031C20.2261 29.1021 20.2269 29.1012 20.2276 29.1002C20.2573 29.0625 20.3002 29.0124 20.3865 28.9123L22.6071 26.3391L22.6342 26.3077C22.8946 26.006 23.133 25.7298 23.3056 25.4882C23.483 25.2401 23.6858 24.9039 23.7272 24.4814C23.7812 23.9302 23.6042 23.3814 23.2384 22.9655C22.9581 22.6468 22.5971 22.4923 22.3082 22.3945C22.0269 22.2993 21.672 22.2143 21.2845 22.1216L21.2442 22.1119L17.8684 21.3034C17.7393 21.2725 17.6748 21.2568 17.6285 21.2435C17.6273 21.2431 17.6262 21.2428 17.625 21.2424C17.6244 21.2415 17.6237 21.2405 17.623 21.2394C17.5963 21.1993 17.562 21.1425 17.4937 21.0287L15.7541 18.1308L15.7328 18.0952C15.5262 17.7511 15.3373 17.4363 15.161 17.1955C14.9801 16.9485 14.7229 16.649 14.3325 16.4776L13.9304 17.3932L14.3325 16.4776C13.8237 16.2541 13.2448 16.2524 12.7347 16.4729ZM13.5799 34.0152L13.5799 34.0151L13.5799 34.0152Z" stroke="#C753DF" stroke-width="2"/><path d="M35.6678 16.4729L36.0634 17.3882L35.6678 16.4729C35.2764 16.6421 35.0174 16.9401 34.8352 17.186C34.6574 17.4259 34.4667 17.7396 34.2582 18.0825L34.2366 18.1179L35.091 18.6376L34.2366 18.1179L32.4327 21.0839C32.3638 21.1973 32.3291 21.2538 32.3022 21.2938C32.3015 21.2948 32.3008 21.2959 32.3002 21.2968C32.299 21.2971 32.2979 21.2975 32.2966 21.2978C32.2503 21.3109 32.1858 21.3262 32.0565 21.3564L28.7648 22.125L28.7244 22.1344C28.3363 22.225 27.9809 22.308 27.6991 22.4016C27.4097 22.4977 27.0478 22.6501 26.7656 22.9673C26.3975 23.3811 26.2174 23.929 26.2683 24.4805C26.3073 24.9032 26.5082 25.2406 26.6842 25.4897C26.8556 25.7322 27.0924 26.0098 27.3512 26.313L27.378 26.3445L29.6434 28.9996L30.4042 28.3506L29.6434 28.9996C29.7292 29.1002 29.7718 29.1505 29.8013 29.1884C29.802 29.1894 29.8028 29.1904 29.8035 29.1913C29.8035 29.1924 29.8034 29.1936 29.8034 29.1949C29.8015 29.2428 29.7961 29.3086 29.7848 29.4403L29.4949 32.8258L29.4913 32.8672C29.4571 33.266 29.4258 33.631 29.4276 33.9289C29.4294 34.2346 29.4623 34.6273 29.6776 34.9945C29.9583 35.4734 30.4254 35.814 30.9671 35.935C31.3826 36.0279 31.7665 35.9393 32.0581 35.8476C32.3424 35.7583 32.6804 35.617 33.0497 35.4626L33.088 35.4466L32.7023 34.5239L33.088 35.4466L36.2798 34.1126C36.4027 34.0613 36.4641 34.0359 36.5096 34.0193C36.5108 34.0189 36.5119 34.0184 36.513 34.018C36.5141 34.0185 36.5153 34.0189 36.5165 34.0193C36.5618 34.0361 36.6231 34.0619 36.7457 34.114L39.8457 35.4304L40.2366 34.51L39.8457 35.4304L39.8839 35.4467C40.2524 35.6032 40.5896 35.7464 40.8733 35.8373C41.1644 35.9307 41.5478 36.0214 41.9638 35.931C42.5062 35.8131 42.9752 35.4751 43.2586 34.9979C43.476 34.6318 43.5112 34.2394 43.5147 33.9337C43.5182 33.6357 43.489 33.2706 43.457 32.8715L43.4537 32.8302L43.1758 29.3521C43.1653 29.2204 43.1602 29.1546 43.1586 29.1067C43.1586 29.1054 43.1585 29.1042 43.1585 29.1031C43.1592 29.1021 43.16 29.1012 43.1607 29.1002C43.1904 29.0625 43.2333 29.0124 43.3196 28.9123L45.5402 26.3391L45.5673 26.3077C45.8277 26.006 46.0661 25.7298 46.2387 25.4882C46.4161 25.2401 46.6189 24.9039 46.6603 24.4814C46.7143 23.9302 46.5373 23.3814 46.1715 22.9655C45.8912 22.6468 45.5302 22.4923 45.2413 22.3945C44.9601 22.2993 44.6052 22.2143 44.2176 22.1216L44.1773 22.1119L40.8015 21.3034C40.6724 21.2725 40.608 21.2568 40.5616 21.2435C40.5604 21.2431 40.5593 21.2428 40.5581 21.2424C40.5575 21.2415 40.5568 21.2405 40.5561 21.2394C40.5294 21.1993 40.4951 21.1425 40.4268 21.0287L38.6872 18.1308L38.6659 18.0952C38.4593 17.7511 38.2704 17.4363 38.0941 17.1955C37.9132 16.9485 37.656 16.649 37.2656 16.4776L36.8635 17.3932L37.2656 16.4776C36.7568 16.2541 36.1779 16.2524 35.6678 16.4729ZM36.513 34.0152L36.513 34.0151L36.513 34.0152Z" stroke="#C753DF" stroke-width="2"/><path d="M32.9809 28.7051L32.9809 28.7051L32.9809 28.7051ZM32.9837 28.706C32.9844 28.7051 32.9851 28.7041 32.9859 28.7031C33.0156 28.6654 33.0586 28.6153 33.1451 28.5152L36.2435 24.9296L36.2706 24.8983C36.5315 24.5965 36.7703 24.3201 36.9433 24.0785C37.1209 23.8304 37.3241 23.494 37.3657 23.0713C37.4199 22.5199 37.2429 21.9706 36.877 21.5546C36.5964 21.2356 36.2351 21.0812 35.946 20.9834C35.6645 20.8882 35.3093 20.8033 34.9213 20.7106L34.881 20.7009L30.1802 19.5767C30.0512 19.5458 29.9868 19.5302 29.9405 19.5168C29.9393 19.5165 29.9381 19.5161 29.937 19.5158C29.9363 19.5148 29.9357 19.5138 29.935 19.5128C29.9083 19.4727 29.8739 19.416 29.8056 19.3023L27.3704 15.2512L27.349 15.2156C27.1425 14.8721 26.9536 14.5577 26.7773 14.3172C26.5964 14.0705 26.3393 13.7715 25.9491 13.6003C25.4406 13.3771 24.8621 13.3754 24.3522 13.5957C23.9611 13.7646 23.7022 14.0621 23.5199 14.3078C23.3422 14.5473 23.1515 14.8605 22.943 15.2028L22.9214 15.2383L20.4056 19.3691C20.3366 19.4824 20.302 19.5388 20.275 19.5788C20.2743 19.5798 20.2736 19.5808 20.273 19.5818C20.2719 19.5821 20.2707 19.5825 20.2695 19.5828C20.2231 19.5959 20.1586 19.6112 20.0294 19.6413L15.4288 20.714L15.3885 20.7234C14.9999 20.814 14.6442 20.8969 14.3621 20.9905C14.0725 21.0866 13.7103 21.239 13.4279 21.5564C13.0596 21.9704 12.8795 22.5186 12.9307 23.0703C12.9699 23.4933 13.1712 23.8308 13.3474 24.0799C13.519 24.3226 13.7563 24.6002 14.0155 24.9035L14.0424 24.935L17.192 28.6213C17.2779 28.7218 17.3206 28.7722 17.3501 28.8101C17.3509 28.8111 17.3516 28.8121 17.3524 28.813C17.3523 28.8142 17.3523 28.8154 17.3522 28.8166C17.3503 28.8646 17.3449 28.9305 17.3336 29.0623L16.9286 33.7846L16.9251 33.8259C16.8908 34.2246 16.8595 34.5895 16.8612 34.8874C16.863 35.193 16.8959 35.5855 17.1111 35.9527C17.3916 36.4316 17.8584 36.7723 18.4 36.8935C18.8153 36.9864 19.1992 36.8981 19.4908 36.8066C19.775 36.7174 20.1129 36.5764 20.4822 36.4222L20.5205 36.4062L24.974 34.5476C25.0967 34.4963 25.1581 34.471 25.2035 34.4545C25.2047 34.454 25.2058 34.4536 25.2069 34.4532C25.208 34.4536 25.2092 34.454 25.2104 34.4545C25.2556 34.4713 25.3169 34.497 25.4393 34.5489L25.8297 33.6283L25.4393 34.5489L29.781 36.3901L29.8192 36.4063C30.1876 36.5625 30.5247 36.7055 30.8084 36.7963C31.0995 36.8895 31.4829 36.98 31.8987 36.8895C32.441 36.7714 32.9098 36.4333 33.193 35.9561C33.4103 35.5901 33.4454 35.1978 33.4489 34.8921C33.4523 34.5943 33.4231 34.2293 33.3911 33.8304L33.3878 33.789L33.001 28.9553C32.9904 28.8235 32.9854 28.7576 32.9838 28.7096C32.9837 28.7084 32.9837 28.7072 32.9837 28.706Z" fill="#F9F9F9" stroke="#C753DF" stroke-width="2"/></svg>