<svg width="29" height="29" fill="none" xmlns="http://www.w3.org/2000/svg"><path d="M14.5 29C22.5081 29 29 22.5081 29 14.5C29 6.49189 22.5081 0 14.5 0C6.49189 0 0 6.49189 0 14.5C0 22.5081 6.49189 29 14.5 29Z" fill="url(#paint0_linear_113_626)"/><path fill-rule="evenodd" clip-rule="evenodd" d="M6.51739 14.1802C10.734 12.3044 13.5458 11.0678 14.9527 10.4704C18.9696 8.76449 19.8043 8.46815 20.3483 8.45836C20.468 8.45618 20.7355 8.48645 20.9088 8.63006C21.0551 8.75126 21.0954 8.91505 21.1147 9.03002C21.1339 9.14493 21.1579 9.40678 21.1388 9.61141C20.9211 11.9466 19.9793 17.6137 19.5001 20.2292C19.2973 21.3359 18.8981 21.707 18.5116 21.7433C17.6716 21.8222 17.0338 21.1765 16.2202 20.632C14.9471 19.78 14.228 19.2496 12.9922 18.4181C11.5642 17.4572 12.4899 16.9291 13.3038 16.066C13.5168 15.8402 17.2177 12.4031 17.2894 12.0913C17.2983 12.0523 17.3067 11.9069 17.2221 11.8302C17.1375 11.7534 17.0127 11.7797 16.9226 11.8005C16.7949 11.8302 14.7612 13.2026 10.8214 15.918C10.2441 16.3227 9.72128 16.5199 9.25281 16.5096C8.73637 16.4982 7.74294 16.2114 7.00441 15.9663C6.09858 15.6657 5.37862 15.5067 5.44131 14.9962C5.47396 14.7302 5.83264 14.4582 6.51739 14.1802Z" fill="white"/><defs><linearGradient id="paint0_linear_113_626" x1="14.5" y1="0" x2="14.5" y2="29" gradientUnits="userSpaceOnUse"><stop stop-color="#51C1F9"/><stop offset="1" stop-color="#198FCE"/></linearGradient></defs></svg>