<svg width="50" height="50" fill="none" xmlns="http://www.w3.org/2000/svg"><path d="M42.5 25.7834V14.291C42.5 10.5467 39.1626 7.5 35.0603 7.5H14.9397C10.8374 7.5 7.5 10.7808 7.5 14.8133V25.4773C7.5 29.6788 10.6666 33.0966 14.5593 33.0966H20.6535C21.3464 36.0028 20.1453 39.312 17.8732 40.4571C17.4633 40.6637 17.2378 41.1269 17.322 41.5886C17.4062 42.0508 17.7799 42.3978 18.2351 42.4366C18.7278 42.479 19.211 42.5 19.6848 42.5C22.8297 42.5 25.5353 41.5704 27.5719 39.7775C29.4819 38.0644 30.71 35.6853 31.0217 33.0966H34.8794C39.0814 33.0966 42.4999 29.8159 42.4999 25.7833L42.5 25.7834ZM34.8795 31.0072H30.1123C29.5806 31.0072 29.1391 31.4298 29.1001 31.9759C29.0113 34.3598 27.9833 36.6032 26.2532 38.1895C24.7889 39.4278 22.9923 40.176 21.1037 40.334C22.8944 37.8494 23.365 34.6089 22.3573 31.6938C22.211 31.2815 21.8301 31.0072 21.4039 31.0072H14.5593C11.7858 31.0072 9.52896 28.5264 9.52896 25.4775V14.8135C9.52896 11.9334 11.9561 9.58968 14.9397 9.58968H35.0602C38.0439 9.58968 40.471 11.6988 40.471 14.2911V25.7835C40.471 28.6636 37.9624 31.0073 34.8795 31.0073L34.8795 31.0072Z" fill="#C753DF"/></svg>