<svg width="50" height="50" fill="none" xmlns="http://www.w3.org/2000/svg"><path d="M32.0149 15.5075V15.5077C32.0149 19.0952 29.0952 22.0149 25.5077 22.0149C21.9202 22.0149 19 19.0951 19 15.5077C19 11.9203 21.9203 9 25.5077 9C29.0957 9 32.0158 11.9208 32.0149 15.5075Z" stroke="#C753DF" stroke-width="2"/><path d="M30.2993 27.7399H30.2993L20.3741 27.7393C20.374 27.7393 20.3739 27.7393 20.3739 27.7393C14.6544 27.7404 10 32.3947 10 38.1138C10 38.9945 10.0068 39.2616 10.0536 39.4599C10.2277 40.1969 10.8031 40.7723 11.5401 40.9464C11.7384 40.9932 12.0055 41 12.8862 41H37.7865C38.6676 41 38.9349 40.9932 39.1332 40.9464C39.8699 40.7722 40.4452 40.197 40.6194 39.4604C40.6663 39.2621 40.6731 38.9948 40.6733 38.1138L30.2993 27.7399ZM30.2993 27.7399C36.0186 27.7399 40.6732 32.3943 40.6733 38.1136L30.2993 27.7399Z" stroke="#C753DF" stroke-width="2"/></svg>