<?xml version="1.0" encoding="utf-8"?>
<svg width="184.44604px" height="184.44739px" viewBox="0 0 184.44604 184.44739" version="1.1" xmlns:xlink="http://www.w3.org/1999/xlink" xmlns="http://www.w3.org/2000/svg">
  <path d="M184.446 136.672L123.063 136.672L123.063 163.885L184.446 163.885L184.446 184.447L102.503 184.447L102.503 116.111L184.446 116.111L184.446 136.672ZM61.3799 20.5607L20.5594 20.5607L20.5594 37.4934L61.3799 37.4934L61.3799 20.5607ZM163.884 58.0554L123.063 58.0554L123.063 74.9881L163.884 74.9881L163.884 58.0554ZM123.063 37.4934L163.884 37.4934L163.884 20.5607L123.063 20.5607L123.063 37.4934ZM102.503 0L184.446 0L184.446 95.5502L102.503 95.5502L102.503 0ZM0 184.447L0 0L81.942 0L81.942 184.447L61.38 184.447L61.38 58.0554L20.5594 58.0554L20.5594 184.447L0 184.447Z" id="g38" fill="#1D1D1B" fill-rule="evenodd" stroke="none" />
  <path d="M42.8608 160.049L36.8123 162.319L42.8608 164.526L42.8608 160.049ZM49.3441 154L49.3441 157.564L45.6233 158.975L45.6233 165.531L49.3441 166.89L49.3441 170.389L33 164.044L33 160.547L49.3441 154Z" id="g42" fill="#1D1D1B" fill-rule="evenodd" stroke="none" />
  <path d="M35.7625 136.199L40.4204 136.199L40.4204 134.401C40.4204 133.103 40.3317 132.239 40.1593 131.801C39.9884 131.364 39.7233 131.022 39.3547 130.774C38.9889 130.527 38.566 130.401 38.0796 130.401C37.4817 130.401 36.9913 130.576 36.6042 130.922C36.2158 131.272 35.9719 131.71 35.8724 132.247C35.7996 132.639 35.7625 133.426 35.7625 134.613L35.7625 136.199ZM49.3441 139.509L33 139.509L33 134.216C33 132.212 33.0835 130.908 33.2439 130.299C33.4905 129.362 34.0233 128.579 34.8466 127.948C35.6683 127.315 36.7288 127 38.0305 127C39.0353 127 39.8757 127.183 40.5597 127.545C41.245 127.909 41.7819 128.369 42.1729 128.93C42.5613 129.488 42.8198 130.059 42.9457 130.637C43.1008 131.425 43.1816 132.562 43.1816 134.053L43.1816 136.199L49.3441 136.199L49.3441 139.509Z" id="g46" fill="#1D1D1B" fill-rule="evenodd" stroke="none" />
  <path d="M35.7625 109.199L40.4204 109.199L40.4204 107.399C40.4204 106.103 40.3317 105.239 40.1593 104.801C39.9884 104.364 39.7233 104.022 39.3547 103.774C38.9889 103.527 38.566 103.401 38.0796 103.401C37.4817 103.401 36.9913 103.576 36.6042 103.922C36.2158 104.272 35.9719 104.71 35.8724 105.247C35.7996 105.638 35.7625 106.426 35.7625 107.613L35.7625 109.199ZM49.3441 112.509L33 112.509L33 107.216C33 105.212 33.0835 103.908 33.2439 103.299C33.4905 102.362 34.0233 101.579 34.8466 100.948C35.6683 100.315 36.7288 100 38.0305 100C39.0353 100 39.8757 100.183 40.5597 100.545C41.245 100.909 41.7819 101.369 42.1729 101.93C42.5613 102.488 42.8198 103.059 42.9457 103.637C43.1008 104.425 43.1816 105.562 43.1816 107.053L43.1816 109.199L49.3441 109.199L49.3441 112.509Z" id="g50" fill="#1D1D1B" fill-rule="evenodd" stroke="none" />
  <path d="M44.3455 85.2847L44.026 82.0663C45.1023 81.8727 45.8898 81.4844 46.3961 80.8945C46.9025 80.3046 47.153 79.5093 47.153 78.5085C47.153 77.4507 46.929 76.6527 46.4796 76.1158C46.0302 75.579 45.5066 75.3099 44.9048 75.3099C44.5177 75.3099 44.1903 75.4239 43.9199 75.6479C43.6455 75.8719 43.4095 76.2683 43.212 76.8317C43.0756 77.2161 42.8383 78.0909 42.4963 79.4603C42.0548 81.2219 41.5154 82.4587 40.8724 83.1691C39.9698 84.1699 38.8708 84.6683 37.5745 84.6683C36.7407 84.6683 35.9573 84.4324 35.231 83.9645C34.5032 83.4926 33.9518 82.8152 33.5713 81.9297C33.1909 81.043 33 79.9772 33 78.7219C33 76.6792 33.4534 75.1376 34.3627 74.1077C35.272 73.0724 36.481 72.5316 38 72.4785L38.114 75.7885C37.2697 75.929 36.6652 76.2299 36.2953 76.6912C35.9254 77.1511 35.7399 77.8431 35.7399 78.7643C35.7399 79.7148 35.9374 80.4611 36.3337 80.9979C36.5883 81.3425 36.9263 81.5189 37.3531 81.5189C37.7416 81.5189 38.0729 81.3544 38.3459 81.0284C38.7 80.6135 39.0657 79.6047 39.4462 78.0035C39.8226 76.4009 40.2177 75.2184 40.6206 74.4536C41.0276 73.6848 41.5803 73.0843 42.2828 72.6509C42.988 72.2161 43.855 72 44.8862 72C45.8221 72 46.6996 72.2585 47.5188 72.7794C48.3367 73.3004 48.9451 74.0347 49.3414 74.9852C49.7391 75.9369 49.938 77.1246 49.938 78.543C49.938 80.6095 49.462 82.1949 48.5077 83.303C47.5573 84.4099 46.1681 85.0673 44.3455 85.2847" id="g54" fill="#1D1D1B" fill-rule="evenodd" stroke="none" />
</svg>